<svg xmlns="http://www.w3.org/2000/svg" id="Layer_1" data-name="Layer 1" viewBox="0 0 1709.2 519.09"><defs><style>      .cls-1 {        fill: #ca1e1e;      }      .cls-1, .cls-2, .cls-3, .cls-4, .cls-5, .cls-6, .cls-7, .cls-8, .cls-9, .cls-10, .cls-11, .cls-12 {        stroke-width: 0px;      }      .cls-2 {        fill: #ecafaf;      }      .cls-4 {        fill: #cb1f1f;      }      .cls-5 {        fill: #090408;      }      .cls-6 {        fill: none;      }      .cls-7 {        fill: #fff;      }      .cls-8 {        fill: #a5a5a5;      }      .cls-9 {        fill: #ff5cc9;      }      .cls-10 {        fill: #a6a6a6;      }      .cls-11 {        fill: #1c1c1c;      }      .cls-12 {        fill: #ababab;      }    </style></defs><rect class="cls-6" x="3.06" y="4.6" width="1703.07" height="509.9"></rect><path class="cls-1" d="m509.6,109.36c-16.05,10.91-32.15,21.77-48.12,32.78-2.26,1.55-3.22,1.4-4.65-.96-6.15-10.17-12.43-20.28-18.83-30.31-1.67-2.62-1.3-3.78,1.44-5.22,30.22-15.77,60.38-31.65,90.56-47.52,1.27-.67,2.54-.96,3.98-.96,11.21,0,22.43,0,33.64-.18,2.66-.04,2.93.68,2.4,3.11-7.88,36.87-15.68,73.76-23.47,110.64-10.01,47.37-20.03,94.73-30,142.11-.38,1.8-.56,3.15-3.07,3.14-15.49-.1-30.98,0-46.47.01-.54,0-1.1-.11-1.81-.2,4.25-19.05,8.44-37.95,12.68-56.83,10.99-49.04,21.99-98.08,32.98-147.11.13-.56.17-1.14.24-1.72.1-1.41-.57-1.38-1.52-.8h.03Z"></path><path class="cls-3" d="m180.93,228.5c2.77-13.5,5.26-25.58,7.73-37.67,7.91-38.64,15.84-77.29,23.7-115.96.39-1.94.68-3.15,3.1-3.14,11.1.1,22.22.04,33.93.04-2.27,10.96-4.42,21.56-6.67,32.14-11.62,54.69-23.31,109.37-34.8,164.09-.75,3.59-2.05,4.54-5.55,4.48-13.35-.2-26.69-.22-40.04,0-3.67.07-5.09-1.16-6.21-4.58-16.4-50.56-32.96-101.08-49.48-151.6-.1-.29-.28-.54-.81-1.51-2.36,11.35-4.59,22.11-6.81,32.87-8.31,40.5-16.61,81.01-24.9,121.53-.42,2.08-1.07,3.31-3.65,3.28-10.17-.15-20.33-.18-30.5,0-3.31.06-3.12-1.44-2.64-3.77,6.04-28.36,12.04-56.72,18.06-85.07,7.56-35.64,15.17-71.27,22.64-106.93.75-3.6,1.79-5.18,5.98-5.07,13.5.36,27.01.24,40.52.07,3.04-.04,4.28.88,5.26,3.85,16.35,49.38,32.86,98.7,49.33,148.01.4,1.19.85,2.36,1.78,4.91h.03Z"></path><path class="cls-5" d="m649.59,349.33c13.89-.03,26.32,2.15,38.48,6.08,2.78.89,3.31,1.94,2.27,4.68-2.13,5.62-4,11.37-5.76,17.14-.85,2.82-1.65,3.59-4.77,2.18-12.96-5.88-26.54-8.32-40.78-6.29-3.98.56-7.7,1.74-11.21,3.66-10.12,5.53-12.22,16.36-4.8,25.25,3.29,3.95,7.5,6.78,11.78,9.56,6.92,4.49,13.68,9.2,20.57,13.75,29.23,19.32,25.1,61.22-4.9,78.31-17.25,9.82-36.02,11.47-55.29,10.08-10.47-.75-20.67-2.97-30.47-6.94-2.47-1.01-3.47-1.81-2.48-4.75,2.09-6.14,3.83-12.41,5.4-18.7.78-3.15,1.92-3.06,4.48-1.8,14.13,6.91,28.98,10.02,44.73,7.9,5.73-.78,11.12-2.54,15.83-6.01,9.2-6.77,10.79-17.09,3.96-26.22-5.62-7.51-13.26-12.66-20.95-17.75-3.7-2.46-7.53-4.72-11.07-7.4-29.11-22.01-24.49-61.22,8.91-75.99,11.84-5.23,24.34-6.82,36.07-6.7h0Z"></path><path class="cls-8" d="m1095.4,173.78c9.33-9.91,19.86-17.39,33.31-20.29,17.79-3.84,33.45,2.04,41.79,16.02,3.05,5.12,4.48,10.76,4.96,16.7,1.36,16.57-2.86,32.41-6.11,48.37-2.37,11.62-4.98,23.21-7.18,34.86-.64,3.39-1.71,4.93-5.46,4.77-7.29-.29-14.61-.34-21.91,0-4.16.19-5.05-.85-4.14-4.93,4.41-19.91,8.58-39.89,12.75-59.84,1.21-5.79,1.19-11.74.39-17.53-1.48-10.58-12.76-16.56-24.78-13.54-13.81,3.48-20.81,13.77-25.65,26-5.46,13.77-7.08,28.54-10.41,42.86-1.75,7.55-3.36,15.14-4.75,22.76-.56,3.07-1.78,4.28-5.01,4.19-7.46-.21-14.94-.32-22.38.04-4.07.2-4.75-1.19-3.96-4.75,3.4-15.43,6.72-30.88,10.01-46.35,4.57-21.49,9.19-42.97,13.58-64.5.65-3.21,1.67-4.67,5.16-4.54,6.5.25,13.02.21,19.54.01,3.49-.1,4.53.95,3.61,4.44-1.33,5.02-2.26,10.16-3.37,15.24h0Z"></path><path class="cls-8" d="m814.91,173.25c6.28-5.29,11.83-10.95,18.94-14.63,12.52-6.43,25.55-8.36,39.05-3.62,12.85,4.51,21.62,18.23,22.2,33.73.5,13.62-2.48,26.77-5.13,39.97-2.71,13.51-5.7,26.95-8.35,40.47-.73,3.71-2.04,5.32-6.18,5.08-7.28-.42-14.62-.21-21.91-.07-3.18.06-4.55-.32-3.67-4.23,4.31-18.98,8.34-38.03,12.34-57.08,1.03-4.95,1.56-9.99,1.51-15.1-.15-14.54-9.93-22.57-24.24-19.61-13.78,2.85-21.16,12.71-26.22,24.72-5.72,13.54-7.29,28.18-10.59,42.36-1.94,8.33-3.64,16.72-5.26,25.12-.54,2.82-1.66,3.94-4.7,3.85-7.94-.22-15.89-.14-23.83-.04-2.77.03-3.47-.66-2.83-3.61,6.35-29.42,12.5-58.87,18.73-88.31,1.7-8.05,3.63-16.06,5.15-24.16.54-2.9,1.63-4.06,4.64-3.98,6.67.17,13.35.18,20.01,0,3.61-.1,4.35,1.07,3.39,4.52-1.32,4.79-2.06,9.73-3.05,14.61Z"></path><path class="cls-5" d="m1399.4,393.99c-1.34,6.59-2.58,12.69-3.82,18.8,7.34-6.98,14.64-13.5,24.08-16.96,14.58-5.35,28.95-6.04,41.93,4.12,9.64,7.55,12.52,18.32,12.79,30.03.29,12.49-2.47,24.58-5.01,36.69-2.9,13.82-5.85,27.62-8.6,41.46-.51,2.57-1.47,3.35-4.04,3.31-7.93-.15-15.88-.15-23.81,0-2.85.06-3.79-.28-3.06-3.59,4.2-18.71,8.11-37.5,12.11-56.26,1.06-4.98,1.69-9.99,1.6-15.1-.24-14.4-9.92-22.02-24.11-19.05-9.33,1.95-15.79,7.72-20.86,15.38-6.61,10.03-8.96,21.53-11.36,33.02-2.94,13.96-5.94,27.9-8.78,41.87-.55,2.74-1.6,3.85-4.64,3.75-7.78-.27-15.56-.15-23.34-.06-2.53.03-3.73-.21-3.05-3.36,7.98-37.01,15.84-74.06,23.71-111.09.34-1.53.57-3.06,2.87-3.03,8.38.1,16.78.04,25.39.04h0Z"></path><path class="cls-5" d="m1037.77,395.09c-4.52,21.23-8.92,41.98-13.34,62.72-3.43,16.1-6.99,32.17-10.2,48.31-.82,4.15-2.33,5.72-6.76,5.39-6.32-.48-12.71-.28-19.04-.06-2.83.1-3.19-.94-2.65-3.29,1.05-4.54,2.68-8.97,2.9-14.61-4.5,3.95-7.98,7.8-12.19,10.8-10.63,7.59-22.37,11.04-35.38,9.69-17.92-1.87-30.26-16.5-30.88-36.33-.33-10.55,1.56-20.84,3.75-31.08,3.44-16.1,6.92-32.21,10.22-48.36.5-2.48,1.35-3.31,3.95-3.25,7.94.19,15.89.24,23.81,0,3.46-.11,3.36,1.17,2.79,3.87-4.23,19.65-8.34,39.33-12.4,59.02-.64,3.1-1.03,6.27-1.28,9.41-1.27,16.04,9.55,25.19,25.19,21.52,7.87-1.84,13.63-6.55,18.27-12.8,7.41-9.95,9.99-21.73,12.52-33.52,3.12-14.54,6.42-29.06,9.39-43.63.59-2.88,1.44-3.95,4.5-3.87,8.72.22,17.45.08,26.85.08h-.02Z"></path><path class="cls-9" d="m1538.78,339.53c92.42,0,167.36-74.98,167.36-167.47S1631.2,4.6,1538.78,4.6s-167.37,74.98-167.37,167.47,74.94,167.47,167.37,167.47Z"></path><path class="cls-5" d="m1119.17,357.52c-2.54,11.83-4.8,22.83-7.29,33.76-.7,3.04,0,3.82,3.09,3.73,7.46-.22,14.94,0,22.41-.11,2.41-.04,3,.6,2.41,2.99-1.3,5.23-2.51,10.49-3.36,15.8-.44,2.75-1.7,3.24-4.13,3.2-7.46-.13-14.94.04-22.41-.1-2.48-.04-3.58.6-4.11,3.24-3.52,17.39-7.25,34.74-10.85,52.11-.38,1.84-.53,3.77-.53,5.67,0,9.34,5.76,14.37,15.06,13.13,3.42-.46,6.79-1.24,10.75-2-1.45,6.95-2.85,13.7-4.27,20.45-.25,1.17-1.01,1.76-2.31,1.97-9.6,1.56-19.18,2.71-28.79.14-12.93-3.45-20.45-13.16-21.02-26.6-.38-9.02,1.48-17.64,3.36-26.32,2.98-13.75,5.87-27.51,8.91-41.73-7.07,0-13.72-.06-20.38.03-2.32.03-3.49-.13-2.67-3.1,1.39-5.19,2.34-10.52,3.27-15.83.42-2.33,1.44-3.11,3.8-3.06,5.72.17,11.45-.18,17.16.14,3.16.18,4.06-1.21,4.57-3.85,1.43-7.15,3.02-14.25,4.51-21.38.36-1.73.65-3.18,2.86-3.77,9.77-2.65,19.47-5.5,29.99-8.5h-.03Z"></path><path class="cls-5" d="m1526.41,514.5c-12.66.08-24.9-2.14-36.94-5.97-2.96-.95-3.64-2.05-2.58-5,1.77-4.91,3.3-9.94,4.56-15.02.83-3.28,2.01-3.45,4.88-2.05,12.09,5.83,24.85,7.12,38.04,4.91,2.67-.45,5.22-1.3,7.6-2.58,7.43-4.01,8.72-11.61,2.96-17.75-4.07-4.34-9.25-7.2-14.38-10.05-5.43-3-10.77-6.09-15.61-9.98-15.45-12.41-15.64-34.86-.36-47.56,12.26-10.19,26.87-12.13,42.08-11.64,10.02.32,19.77,2.43,29.41,5.15,3,.85,4.23,1.76,2.88,5.11-1.95,4.84-3.48,9.88-4.95,14.9-.73,2.47-1.66,2.75-3.98,1.67-10.57-4.9-21.62-7.09-33.28-5.55-2.56.33-4.97,1.09-7.21,2.26-8.06,4.19-9.11,11.91-2.54,18.14,4.07,3.87,9.07,6.36,13.85,9.17,4.64,2.72,9.26,5.53,13.78,8.43,20.35,13.08,18.4,41.21-1.03,53.87-11.36,7.4-23.95,9.67-37.2,9.49v.04h.02Z"></path><path class="cls-8" d="m928.58,274.14c-3.97,0-7.95-.1-11.91.03-2.89.1-3.36-.8-2.75-3.66,6.42-29.7,12.65-59.42,18.93-89.13,5.5-26,11.06-51.99,16.39-78.03.74-3.59,2.18-4.66,5.69-4.54,7.29.24,14.62.15,21.92.04,2.92-.04,4.2.18,3.4,3.92-9.89,46.29-19.57,92.62-29.3,138.94-2.02,9.6-4.17,19.19-6.04,28.82-.53,2.74-1.69,3.77-4.42,3.66-3.96-.17-7.94-.04-11.91-.04h0Z"></path><path class="cls-5" d="m853.42,511.38c-3.81,0-7.64-.29-11.42.07-4.34.42-3.58-1.9-3.01-4.54,5.37-25.12,10.7-50.24,16.04-75.36,6.23-29.31,12.54-58.59,18.65-87.92.6-2.86,1.41-3.96,4.48-3.88,7.62.24,15.24.18,22.86.03,2.82-.06,3.86.27,3.17,3.59-11.73,54.86-23.33,109.73-34.85,164.64-.6,2.87-1.81,3.54-4.46,3.42-3.81-.19-7.61-.06-11.42-.06h-.01Z"></path><path class="cls-8" d="m996.59,274.14c-3.65,0-7.32-.17-10.96.04-3.32.2-4.18-1.06-3.49-4.2,3.01-13.58,5.94-27.19,8.84-40.79,4.95-23.19,9.92-46.39,14.76-69.61.7-3.32,2.01-4.75,5.68-4.56,6.65.34,13.33.08,20.01.1,3.82,0,5.35,1.83,4.58,5.48-3.83,17.95-7.66,35.89-11.52,53.84-3.99,18.56-8.12,37.11-11.91,55.71-.67,3.29-2.01,4.17-5.03,4.03-3.64-.18-7.31-.04-10.96-.04h.01Z"></path><path class="cls-5" d="m1140.35,511.38c3.52-16.47,6.92-32.52,10.36-48.57,4.59-21.35,9.32-42.68,13.76-64.06.65-3.18,1.88-4,4.97-3.91,7.29.24,14.6.24,21.9,0,3.25-.11,3.65.91,3.04,3.78-6.54,30.16-12.97,60.33-19.44,90.5-1.4,6.5-2.9,12.98-4.15,19.51-.36,1.87-.91,2.78-2.97,2.76-9.03-.07-18.06-.03-27.46-.03Z"></path><path class="cls-4" d="m210.08,319.67c-67.35,0-134.71,0-202.06-.03-2.09,0-4.95,1.17-4.95-3,0-2.85.73-4.21,3.72-3.77.63.1,1.27,0,1.91,0,134.55,0,269.11,0,403.65.08,1.81,0,4.87-1.9,5.34,2.43.49,4.45-1.91,4.33-5.06,4.31-67.52-.06-135.02-.04-202.54-.04h-.01Z"></path><path class="cls-10" d="m1032.55,103.35c4.12,0,8.24.06,12.37-.03,2.23-.04,3.54.11,2.89,3.07-1.85,8.16-3.4,16.4-5.03,24.6-.4,2.08-1.58,2.85-3.66,2.83-8.24-.06-16.49-.1-24.73,0-2.76.04-3.31-1.37-2.87-3.57,1.6-8.21,3.25-16.41,4.9-24.6.36-1.77,1.21-2.53,3.31-2.4,4.27.27,8.55.08,12.84.08v.03h0Z"></path><path class="cls-5" d="m1184.96,373.99c-4.28,0-8.58-.1-12.84.04-2.26.07-2.75-.8-2.32-2.81,1.76-8.36,3.53-16.72,5.2-25.09.36-1.83,1.1-2.55,3.09-2.53,8.41.13,16.83.14,25.23,0,2.49-.04,2.96.77,2.49,2.99-1.73,8.05-3.42,16.1-5,24.18-.46,2.33-1.25,3.48-3.95,3.28-3.95-.28-7.93-.07-11.89-.07h-.02Z"></path><path class="cls-12" d="m1225.98,222.65c.7-3.18,3.29-1.88,5.05-1.88,26.59-.08,53.18-.06,79.77-.06-.49,3.1-2.96,1.8-4.54,1.8-26.75.11-53.51.11-80.28.14Z"></path><path class="cls-7" d="m1577.78,160.68c13.32.38,26.16,2.61,37.83,9.55,3.6,2.13,6.66,4.91,9.34,8.05,6.02,7.01,6.74,15.09,1.72,22.79-3.03,4.63-6.52,8.99-10.06,13.24-6.22,7.48-9.22,15.95-9.78,25.69-.8,14.25-2.36,28.46-7.42,41.98-5.21,13.96-15.37,21.06-29.37,21.62-12.71.52-17.91-8.42-16.78-19.36.89-8.72,5.5-15.74,10.88-22.33.91-1.1,1.76-2.26,2.78-3.25,12.85-12.34,13.84-26.99,8.62-42.97-3.61-11.05-9.22-21.21-13.85-31.82-1.39-3.21-2.77-6.43-3.34-9.89-1.13-6.82,1.39-10.56,8.05-12.28,3.74-.96,7.52-1.16,11.35-1h.02Z"></path><path class="cls-7" d="m1490.9,84.97c11.91.27,20.76,1.07,29.19,4.21,8.85,3.29,10.7,8.37,6.27,16.7-5.39,10.16-13.49,18.39-19.77,27.94-5.27,8.02-9.65,16.33-11.36,25.93-1.04,5.72-.15,11.1,2.2,16.2,2.33,5.04,5.05,9.88,7.6,14.81,3.8,7.34,5.76,15.09,4.81,23.4-1.16,10.27-8.33,15.78-18.4,14.17-15.41-2.46-24.89-13.61-26.64-30.28-1.29-12.28-.71-24.53,1.44-36.49,2.4-13.36-.49-25.09-7.04-36.44-1.34-2.33-2.56-4.76-3.58-7.24-4.18-10.2-1.64-18.55,7.43-24.87,7.6-5.29,18.06-8.01,27.84-8.04Z"></path><path class="cls-7" d="m1545.15,66.54c-.7,7.23-3.21,13.87-9.97,18.13-6.37,4.02-12.51,1.48-14.1-5.82-1.74-7.95.98-14.78,6.28-20.47,3.04-3.27,7.1-5.79,11.92-3.75,5.02,2.12,5.65,6.8,5.87,11.92Z"></path><path class="cls-7" d="m1571.6,141.77c-.03,8.08-3.63,14.17-8.31,15.04-5.19.96-10.6-3.04-13.2-10.12-2.24-6.13-2.77-12.38.56-18.34,3.23-5.79,8.89-6.56,13.88-2.13,4.96,4.41,6.61,10.22,7.07,15.56h0Z"></path><path class="cls-7" d="m1500.95,68.39c0-.47-.03-.95,0-1.42.34-6.35,4.29-11.3,8.52-10.66,4.04.61,6.71,6.21,5.76,12.13-.12.78-.36,1.54-.62,2.29-1.72,5.02-4.88,7.89-8.23,7.05-4.87-1.21-5.37-5.25-5.46-9.36h.03Z"></path><path class="cls-7" d="m1591.91,140.04c.11,4.42-.58,7.47-2.63,10.08-3.15,4.02-7.42,3.82-10.03-.6-2.74-4.65-2.28-9.48.16-14.04,1.26-2.37,3.1-4.63,6.31-4.2,3.25.43,4.77,2.93,5.74,5.69.47,1.31.43,2.81.45,3.07Z"></path><path class="cls-7" d="m1611.6,145.28c.17,2.93-.47,4.91-1.25,6.81-1.79,4.44-5.39,6.95-8.61,5.75-4.23-1.6-4.44-5.41-4.12-9.14.16-2.01.7-4.03,1.88-5.82,1.82-2.75,3.94-5.25,7.62-4.33,3.8.95,4.07,4.38,4.47,6.73h.02Z"></path><path class="cls-7" d="m1461.92,70.33c-.09-3.11.86-5.76,3.95-6.88,2.99-1.07,5.18.66,6.99,2.81,2.47,2.9,3.66,6.32,3.38,10.1-.19,2.6-.96,5.15-3.76,6.08-2.9.98-5.34-.31-7.2-2.48-2.36-2.74-3.48-6-3.36-9.64h.01Z"></path><path class="cls-7" d="m1629.73,152.44c.13,4.54-3.62,10.36-7.86,12.21-3.99,1.74-7.67-.67-7.92-5.21-.26-4.65,3.3-10.37,7.66-12.27,4.36-1.91,8.01.45,8.13,5.28h0Z"></path><path class="cls-7" d="m1494.38,69.32v.47c-.15,5.02-3.07,9.29-6.37,9.38-3.67.08-6.81-3.98-7.12-9.22,0-.15-.01-.32-.03-.47-.22-6.2,2.45-10.62,6.37-10.56,3.7.04,7.08,4.97,7.13,10.41h.02Z"></path><path class="cls-7" d="m1459.56,85.8c-.24,2.26-.84,5.09-4.57,5.32-3.61.21-7.17-4.63-7.27-9.7-.07-3.21.39-6.27,4.43-6.52,3.73-.22,7.3,4.87,7.41,10.89h0Z"></path><path class="cls-7" d="m1641.38,164.97c-.07,6.24-4.49,11.67-8.45,11.61-3.54-.04-4.41-2.6-4.43-5.54-.05-4.48,4.72-10.29,8.46-10.13,3.43.14,4.41,2.55,4.42,4.06Z"></path><path class="cls-11" d="m417.86,20.14c-1.27-.71-2.58-1.27-1.62-2.75.18-.29.88-.56,1.13-.43,1.53.8.21,2.16.47,3.2h.01Z"></path><path class="cls-2" d="m495.68,59.69c.6-.91,1.44-1.97,2.48-1.28.82.53.35,1.67-.4,2.39-.4-.91-1.21-1.07-2.09-1.1h.01Z"></path><path class="cls-3" d="m414.4,175.54c-1.99-14.54-8.17-27.17-19.25-37.22-13.89-12.6-30.74-16.31-48.77-16.41h0c-2.06.01-4.12-.1-6.16.03-19.64,1.16-37.73,6.66-53.07,19.44-22.29,18.58-30.74,43.03-29.9,71.33.66,22.29,8.76,40.78,28.02,53.14,14.14,9.07,30.06,11.15,46.53,10.4,23.29-1.07,43.64-8.96,59.79-26.17,19.76-21.07,26.69-46.28,22.82-74.54Zm-57.2,61.87c-11.07,11.05-24.46,14.81-39.25,9.28-14.46-5.42-19.83-17.77-21.49-32.13-.25-2.19-.04-4.44-.04-6.66h.01c.08-20.6,7.21-38.11,23.58-51.15,13.04-10.37,31.39-10.98,43.28-1.7,8.12,6.35,11.78,15.18,12.59,25.18,1.76,21.62-2.83,41.34-18.69,57.18Z"></path><path class="cls-8" d="m753.76,159.81c-2.3-16.18-9.86-29.66-23.31-39.45-12.47-9.09-26.76-11.92-41.77-12.16-21.99-.34-41.81,6.06-57.99,21.14-21.99,20.52-32.69,46.28-33.17,76.31-.24,15.18,2.26,29.81,10.49,42.82,12.98,20.5,32.33,29.01,50.33,28.76h0s.01-.01.01-.01c34.78-.04,58.62-10.86,75.91-34.43,18.2-24.8,23.75-52.89,19.48-82.98Zm-32.09,16.02h0c-.82,24.92-7.67,47.42-26.47,65.05-9.9,9.28-21.73,12.85-35.05,11.05-14-1.88-25.47-13.3-27.85-28.78-4.28-27.86,1.76-53.39,20.28-75.04,10.52-12.28,24.11-18.25,40.71-15.32,13.26,2.34,21.25,10.59,25.51,22.89,2.24,6.49,3.23,13.23,2.87,20.15Z"></path><g><polygon class="cls-5" points="745.23 514.5 745.23 514.5 745.22 514.5 745.23 514.5"></polygon><path class="cls-5" d="m802.32,400.95c-11.38-7.79-24.3-9.32-37.75-8.79-37.11,1.45-63.17,25.99-66.25,62.97-1.26,15.13,1.12,29.53,11.31,41.6,11.34,13.41,26.52,17.72,35.6,17.77,46.91,0,76.49-26.95,78.39-64.46,1-19.8-3.96-37.23-21.3-49.08Zm-24.69,82.51c-8.65,8.93-19.34,11.64-30.95,7.61-11.28-3.92-15.89-13.4-17.31-24.67-.25-2.04-.31-4.1-.45-6.15h.01c.18-13.55,4.38-25.55,13.58-35.63,6-6.56,13.22-10.77,22.29-11.3,13.31-.78,23.77,6.32,26.51,19.57,3.92,18.92.13,36.28-13.7,50.59Z"></path></g><g><path class="cls-5" d="m1264.47,514.5h0s-.01,0-.02,0h.02Z"></path><path class="cls-5" d="m1333.1,433.2c-3.32-17.51-12.5-30.81-29.35-36.86-22.92-8.23-45.53-5.93-66.05,7.42-21.24,13.83-29.59,34.57-29.07,59.45.42,19.57,7.81,35.07,25.36,44.74,9.25,5.09,19.41,6.68,30.48,6.52h0c9.48.12,19.28-1.48,28.58-5.41,29.32-12.41,46.04-44.31,40.05-75.86Zm-29.95,11.26h-.01c-.31,14.39-4.01,27.56-14.22,38.25-8.66,9.07-19.23,12.43-31.2,8.53-11.61-3.78-16.59-13.23-17.81-24.7-1.9-17.98,3.35-33.52,17.07-45.72,4.99-4.44,10.94-6.91,17.64-7.48,16.12-1.35,27.75,9.81,28.51,27.31.06,1.27,0,2.54,0,3.81Z"></path></g><path class="cls-8" d="m1312.57,190.6c-1.92-14.82-8.68-26.77-22.53-33.7-9.92-4.97-20.44-5.82-31.44-5.05-14.88,1.05-27.86,6.06-38.56,16.37-19.08,18.38-26.57,41-22.47,67,2.87,18.18,12.87,31.6,30.58,38.13,20.49,7.55,40.86,4.42,61.13-1.44,2.06-.6,2.61-2.02,2.74-3.89.36-4.75.66-9.49,1.15-14.21.61-5.97.69-5.93-5-3.68-13.65,5.39-27.77,6.84-42.03,3.63-10.63-2.39-22.14-10.83-20.18-31.09h-.01c1.78-1.49,3.95-.98,5.96-.98,24.29-.04,48.57-.01,72.88-.04,2.02,0,4.17.49,5.98-.93,2.5-9.92,3.09-20.03,1.79-30.1Zm-25.94,9.2c-.22,2.87-1.28,3.78-4.1,3.73-8.26-.15-16.52-.06-24.77-.06h0c-8.26.01-16.51-.01-24.77.01-2.3,0-3.85-.42-2.93-3.22,4.4-13.37,11.78-24.31,26.33-27.49,20.82-4.55,31.72,8.19,30.24,27.03Z"></path></svg>